<?xml version="1.0" standalone="no"?>
<!DOCTYPE svg PUBLIC "-//W3C//DTD SVG 20010904//EN"
 "http://www.w3.org/TR/2001/REC-SVG-20010904/DTD/svg10.dtd">
<svg version="1.0" xmlns="http://www.w3.org/2000/svg"
 width="128.000000pt" height="128.000000pt" viewBox="0 0 128.000000 128.000000"
 preserveAspectRatio="xMidYMid meet">
<metadata>
Created by potrace 1.11, written by Peter Selinger 2001-2013
</metadata>
<g transform="translate(0.000000,128.000000) scale(0.100000,-0.100000)"
fill="#000000" stroke="none">
<path d="M0 640 l0 -640 640 0 640 0 0 640 0 640 -640 0 -640 0 0 -640z m403
309 c30 -8 37 -15 37 -34 0 -29 0 -29 -36 -10 -42 21 -100 19 -124 -5 -41 -41
-17 -84 54 -100 90 -20 126 -50 126 -104 0 -71 -47 -107 -137 -105 -86 1 -107
10 -111 43 -3 25 -1 28 15 21 10 -4 39 -13 65 -18 62 -14 99 -2 109 37 11 40
-22 70 -95 87 -66 14 -96 44 -96 93 0 81 88 124 193 95z m355 -16 c49 -36 66
-70 70 -137 5 -81 -11 -129 -53 -163 -32 -26 -33 -28 -18 -45 15 -17 15 -20 0
-35 -16 -16 -19 -15 -45 10 -17 16 -39 27 -56 27 -44 0 -106 40 -127 82 -23
45 -26 156 -5 196 18 34 53 68 86 81 37 16 117 7 148 -16z m196 -20 c3 -21 6
-91 6 -155 l0 -118 85 0 c78 0 85 -2 85 -20 0 -19 -7 -20 -115 -20 l-115 0 0
138 c0 169 6 212 30 212 12 0 19 -11 24 -37z m-434 -338 c0 -18 -5 -25 -20
-25 -15 0 -20 7 -20 25 0 18 5 25 20 25 15 0 20 -7 20 -25z m0 -205 l0 -130
-25 0 -25 0 2 130 c1 129 1 130 25 130 23 0 23 0 23 -130z m128 29 c0 -112 8
-129 57 -129 55 0 67 25 67 134 1 94 1 96 24 96 l24 0 0 -130 0 -130 -25 0
c-17 0 -25 6 -25 17 0 14 -3 13 -23 -5 -23 -22 -68 -29 -102 -16 -32 13 -45
59 -45 164 0 98 0 100 24 100 23 0 23 -2 24 -101z"/>
<path d="M617 909 c-27 -16 -57 -87 -57 -134 0 -49 31 -119 58 -134 36 -19 91
-13 117 13 50 50 56 159 12 223 -29 43 -87 57 -130 32z"/>
</g>
</svg>
